HIERARCHY
ROOT Hips
{
  OFFSET -4.35178 90.3298 111.633
  CHANNELS 6 Xposition Yposition Zposition Zrotation Xrotation Yrotation
  JOINT LeftUpLeg
  {
    OFFSET 0.103456 1.85784 10.5485
    CHANNELS 6 Xposition Yposition Zposition Zrotation Xrotation Yrotation
    JOINT LeftLeg
    {
      OFFSET 43.5 -4.2e-05 0
      CHANNELS 6 Xposition Yposition Zposition Zrotation Xrotation Yrotation
      JOINT LeftFoot
      {
        OFFSET 42.3722 1.9e-05 0
        CHANNELS 6 Xposition Yposition Zposition Zrotation Xrotation Yrotation
        JOINT LeftToe
        {
          OFFSET 17.3 0 0
          CHANNELS 6 Xposition Yposition Zposition Zrotation Xrotation Yrotation
          End Site
          {
            OFFSET 0 0 0
          }
        }
      }
    }
  }
  JOINT RightUpLeg
  {
    OFFSET 0.103456 1.85782 -10.5485
    CHANNELS 6 Xposition Yposition Zposition Zrotation Xrotation Yrotation
    JOINT RightLeg
    {
      OFFSET 43.5 -2.7e-05 0
      CHANNELS 6 Xposition Yposition Zposition Zrotation Xrotation Yrotation
      JOINT RightFoot
      {
        OFFSET 42.3723 0 0
        CHANNELS 6 Xposition Yposition Zposition Zrotation Xrotation Yrotation
        JOINT RightToe
        {
          OFFSET 17.3 0 1.7e-05
          CHANNELS 6 Xposition Yposition Zposition Zrotation Xrotation Yrotation
          End Site
          {
            OFFSET 0 0 0
          }
        }
      }
    }
  }
  JOINT Spine
  {
    OFFSET 6.90197 -2.60373 0
    CHANNELS 6 Xposition Yposition Zposition Zrotation Xrotation Yrotation
    JOINT Spine1
    {
      OFFSET 12.5881 0 0
      CHANNELS 6 Xposition Yposition Zposition Zrotation Xrotation Yrotation
      JOINT Spine2
      {
        OFFSET 12.3432 -1.8e-05 0
        CHANNELS 6 Xposition Yposition Zposition Zrotation Xrotation Yrotation
        JOINT Neck
        {
          OFFSET 25.8329 2.3e-05 0
          CHANNELS 6 Xposition Yposition Zposition Zrotation Xrotation Yrotation
          JOINT Head
          {
            OFFSET 11.7666 0 0
            CHANNELS 6 Xposition Yposition Zposition Zrotation Xrotation Yrotation
            End Site
            {
              OFFSET 0 0 0
            }
          }
        }
        JOINT LeftShoulder
        {
          OFFSET 19.7459 -1.48035 6.0001
          CHANNELS 6 Xposition Yposition Zposition Zrotation Xrotation Yrotation
          JOINT LeftArm
          {
            OFFSET 11.2841 1.8e-05 -2e-05
            CHANNELS 6 Xposition Yposition Zposition Zrotation Xrotation Yrotation
            JOINT LeftForeArm
            {
              OFFSET 33 -1.3e-05 1.9e-05
              CHANNELS 6 Xposition Yposition Zposition Zrotation Xrotation Yrotation
              JOINT LeftHand
              {
                OFFSET 25.2 3.2e-05 1.1e-05
                CHANNELS 6 Xposition Yposition Zposition Zrotation Xrotation Yrotation
                End Site
                {
                  OFFSET 0 0 0
                }
              }
            }
          }
        }
        JOINT RightShoulder
        {
          OFFSET 19.7461 -1.48036 -6.00008
          CHANNELS 6 Xposition Yposition Zposition Zrotation Xrotation Yrotation
          JOINT RightArm
          {
            OFFSET 11.2841 0 0
            CHANNELS 6 Xposition Yposition Zposition Zrotation Xrotation Yrotation
            JOINT RightForeArm
            {
              OFFSET 33.0001 1.6e-05 0
              CHANNELS 6 Xposition Yposition Zposition Zrotation Xrotation Yrotation
              JOINT RightHand
              {
                OFFSET 25.1998 0.000123 0.000432
                CHANNELS 6 Xposition Yposition Zposition Zrotation Xrotation Yrotation
                End Site
                {
                  OFFSET 0 0 0
                }
              }
            }
          }
        }
      }
    }
  }
}
MOTION
Frames:	9
Frame Time:	0.0333333
-7.94687 139.814 138.59 -75.5407 -63.8132 -164.772 0.103456 1.85784 10.5485 -39.5327 20.0303 172.902 43.5 -4.2e-05 1e-05 -76.1312 -10.5971 12.7086 42.3722 1.9e-05 0 89.7663 9.13431 -4.38852 17.3 0 3e-06 21.4546 -1e-06 0.003093 0.103456 1.85782 -10.5485 18.2722 -20.7657 171.73 43.5 -2.7e-05 4e-06 -28.7328 15.5628 11.9957 42.3723 0 1e-05 52.1734 0.629266 -16.2161 17.3 -6e-06 1.7e-05 21.4546 -1.9e-05 -0.003116 6.90197 -2.60373 -3e-06 12.3931 1.4575 -0.161976 12.5881 1e-05 8e-06 14.7535 3.03259 -0.627079 12.3432 -1.8e-05 -5e-06 14.3952 3.20886 -0.79856 25.8329 2.3e-05 7e-06 7.4656 -6.58233 -8.35489 11.7666 -8e-06 -6e-06 -34.9579 -5.94898 7.09034 19.7459 -1.48035 6.0001 -165.347 9.07997 -92.5121 11.2841 1.8e-05 -2e-05 23.6692 -24.5946 62.9454 33 -1.3e-05 1.9e-05 -117.367 -15.9791 -8.75421 25.2 3.2e-05 1.1e-05 -21.2427 36.7288 -5.20838 19.7461 -1.48036 -6.00008 176.688 -8.90038 99.1746 11.2841 0 -1e-06 -40.019 14.2941 -34.6525 33.0001 1.6e-05 -1e-06 -97.3331 -13.5588 23.4024 25.1998 0.000123 0.000432 -28.1434 -27.7104 21.0507 
-6.65648 140.979 135.778 -76.0311 -65.3564 -164.444 0.103456 1.85784 10.5485 -36.6586 19.2135 171.566 43.5 -4.2e-05 1e-05 -74.9742 -9.98758 12.345 42.3722 1.9e-05 0 90.1119 8.7987 -4.90046 17.3 0 3e-06 21.4546 -1e-06 0.003093 0.103456 1.85782 -10.5485 10.9295 -15.0954 168.202 43.5 -2.7e-05 4e-06 -43.5099 12.9615 14.1582 42.3723 0 1e-05 57.165 -1.69921 -16.4262 17.3 -6e-06 1.7e-05 21.4546 -1.9e-05 -0.003116 6.90197 -2.60373 -3e-06 12.3346 1.17273 -0.351312 12.5881 1e-05 8e-06 14.6432 2.42334 -0.936663 12.3432 -1.8e-05 -5e-06 14.2932 2.57998 -1.07013 25.8329 2.3e-05 7e-06 7.63734 -5.98288 -8.26529 11.7666 -8e-06 -6e-06 -33.9943 -5.80853 7.25528 19.7459 -1.48035 6.0001 -165.256 10.6994 -91.3294 11.2841 1.8e-05 -2e-05 20.5299 -23.2723 65.3089 33 -1.3e-05 1.9e-05 -115.367 -15.9149 -8.41271 25.2 3.2e-05 1.1e-05 -21.6732 36.8091 -5.43493 19.7461 -1.48036 -6.00008 176.481 -8.4334 97.6532 11.2841 0 -1e-06 -40.9749 10.1777 -37.8455 33.0001 1.6e-05 -1e-06 -96.3742 -12.9779 23.5141 25.1998 0.000123 0.000432 -29.8759 -29.5145 21.6437 
-5.40706 142.114 133.072 -76.0536 -66.3684 -163.728 0.103456 1.85784 10.5485 -33.245 18.1741 170.675 43.5 -4.2e-05 1e-05 -73.1275 -9.04882 11.6627 42.3722 1.9e-05 0 91.037 7.88651 -5.37695 17.3 7.10543e-15 3e-06 21.4546 -1e-06 0.003093 0.103456 1.85782 -10.5485 3.19243 -10.986 165.563 43.5 -2.7e-05 4e-06 -58.6386 10.6249 14.2113 42.3723 -1.42109e-14 1e-05 61.2282 -4.29364 -15.4898 17.3 -6e-06 1.7e-05 21.4546 -1.9e-05 -0.003116 6.90197 -2.60373 -3e-06 12.2005 0.939133 -0.595535 12.5881 1e-05 8e-06 14.3813 1.90261 -1.36615 12.3432 -1.8e-05 -5e-06 14.0389 2.02974 -1.46662 25.8329 2.3e-05 7e-06 8.04249 -5.22939 -8.28879 11.7666 -8e-06 -6e-06 -32.8288 -5.86596 7.63573 19.7459 -1.48035 6.0001 -166.77 11.6497 -89.8576 11.2841 1.8e-05 -2e-05 14.7298 -21.8914 65.4257 33 -1.3e-05 1.9e-05 -111.662 -16.1348 -7.91696 25.2 3.2e-05 1.1e-05 -20.0626 37.4934 -6.73961 19.7461 -1.48036 -6.00008 176.867 -6.95028 95.4686 11.2841 0 -1e-06 -41.2865 6.45418 -41.4299 33.0001 1.6e-05 -1e-06 -94.2263 -13.231 23.472 25.1998 0.000123 0.000432 -31.2299 -31.725 22.3572 
-4.10748 143.339 130.638 -75.6339 -66.9249 -162.826 0.103456 1.85784 10.5485 -29.6076 17.1425 170.773 43.5 -4.2e-05 1e-05 -70.9406 -7.54429 10.1276 42.3722 1.9e-05 -3.55271e-15 91.7485 7.26043 -5.37421 17.3 1.42109e-14 3e-06 21.4546 -1e-06 0.003093 0.103456 1.85782 -10.5485 -5.01074 -8.49832 163.953 43.5 -2.7e-05 4e-06 -73.4362 10.3745 12.1551 42.3723 -1.42109e-14 1e-05 66.0552 -7.46437 -14.2113 17.3 -6e-06 1.7e-05 21.4546 -1.9e-05 -0.003116 6.90197 -2.60373 -3e-06 12.1484 0.7525 -0.802241 12.5881 1e-05 8e-06 14.2813 1.48493 -1.73376 12.3432 -1.8e-05 -5e-06 13.9452 1.58863 -1.80775 25.8329 2.3e-05 7e-06 8.42598 -4.76094 -8.12332 11.7666 -8e-06 -6e-06 -32.1418 -6.22883 7.55159 19.7459 -1.48035 6.0001 -167.84 12.6341 -88.4919 11.2841 1.8e-05 -2e-05 11.1526 -21.8207 67.5456 33 -1.3e-05 1.9e-05 -109.673 -15.3769 -7.03537 25.2 3.2e-05 1.1e-05 -19.4912 36.202 -6.33957 19.7461 -1.48036 -6.00008 177.519 -4.99843 93.4035 11.2841 0 -1e-06 -40.1256 3.48329 -44.9135 33.0001 1.6e-05 -1e-06 -92.7696 -11.1162 23.2482 25.1998 0.000123 0.000432 -31.3338 -32.0707 22.195 
-2.32536 144.672 128.266 -73.4649 -68.1522 -160.516 0.103456 1.85784 10.5485 -25.5164 15.9918 171.45 43.5 -4.2e-05 1e-05 -68.4598 -5.69938 8.7454 42.3722 1.9e-05 0 92.2136 7.07538 -5.71206 17.3 7.10543e-15 3e-06 21.4546 -1e-06 0.003093 0.103456 1.85782 -10.5485 -12.9103 -6.83626 163.768 43.5 -2.7e-05 4e-06 -86.8479 12.4541 8.96685 42.3723 1.42109e-14 1e-05 71.6947 -10.508 -11.0321 17.3 -6e-06 1.7e-05 21.4546 -1.9e-05 -0.003116 6.90197 -2.60373 -3e-06 12.1201 0.369479 -0.900892 12.5881 1e-05 8e-06 14.2269 0.702166 -1.8432 12.3432 -1.8e-05 -5e-06 13.902 0.79983 -1.8687 25.8329 2.3e-05 7e-06 8.63467 -4.26888 -8.20637 11.7666 -8e-06 -6e-06 -31.3305 -6.31059 7.43773 19.7459 -1.48035 6.0001 -168.673 13.4022 -87.753 11.2841 1.8e-05 -2e-05 6.93474 -21.2434 68.3986 33 -1.3e-05 1.9e-05 -109.945 -15.3311 -6.3059 25.2 3.2e-05 1.1e-05 -20.1374 34.572 -5.54718 19.7461 -1.48036 -6.00008 178.153 -2.3191 91.1495 11.2841 0 -1e-06 -38.2672 0.271937 -47.8376 33.0001 1.6e-05 -1e-06 -91.7353 -9.67605 22.8881 25.1998 0.000123 0.000432 -31.0856 -30.7664 20.9375 
-0.868022 146.533 125.582 -71.6297 -67.271 -158.282 0.103456 1.85784 10.5485 -19.9312 15.3736 171.987 43.5 -4.2e-05 1e-05 -64.0711 -4.26211 6.63266 42.3722 1.9e-05 0 91.6925 6.82126 -5.22238 17.3 7.10543e-15 3e-06 21.4546 -1e-06 0.003093 0.103456 1.85782 -10.5485 -20.4533 -4.84648 164.316 43.5 -2.7e-05 4e-06 -96.698 15.2613 4.74033 42.3723 1.42109e-14 1e-05 78.3478 -11.1714 -8.73489 17.3 -6e-06 1.7e-05 21.4546 -1.9e-05 -0.003116 6.90197 -2.60373 -3e-06 12.2006 0.194135 -1.20449 12.5881 1e-05 8e-06 14.3902 0.285982 -2.40663 12.3432 -1.8e-05 -5e-06 14.0721 0.352074 -2.40546 25.8329 2.3e-05 7e-06 8.65515 -3.34774 -8.8815 11.7666 -8e-06 -6e-06 -30.3098 -5.89425 7.59435 19.7459 -1.48035 6.0001 -169.911 13.5465 -87.4977 11.2841 1.8e-05 -2e-05 2.21294 -20.5702 67.9725 33 -1.3e-05 1.9e-05 -111.179 -15.4832 -5.19159 25.2 3.2e-05 1.1e-05 -20.1335 33.2052 -5.27784 19.7461 -1.48036 -6.00008 178.202 0.223654 88.1531 11.2841 0 -1e-06 -36.2574 -3.59919 -49.4286 33.0001 1.6e-05 -1e-06 -90.186 -9.26305 22.3769 25.1998 0.000123 0.000432 -31.4839 -30.9521 20.5488 
0.745517 148.365 123.546 -69.7414 -67.1136 -156.596 0.103456 1.85784 10.5485 -15.5109 14.2992 173.19 43.5 -4.2e-05 1e-05 -60.0061 -2.45971 4.7595 42.3722 1.9e-05 3.55271e-15 89.8668 6.92313 -4.5872 17.3 -7.10543e-15 3e-06 21.4546 -1e-06 0.003093 0.103456 1.85782 -10.5485 -28.4259 -4.67234 166.566 43.5 -2.7e-05 4e-06 -103.855 19.65 0.459143 42.3723 0 1e-05 85.4825 -8.88772 -5.91919 17.3 -6e-06 1.7e-05 21.4546 -1.9e-05 -0.003116 6.90197 -2.60373 -3e-06 12.4643 -0.201297 -1.104 12.5881 1e-05 8e-06 14.919 -0.474933 -2.11619 12.3432 -1.8e-05 -5e-06 14.612 -0.381278 -2.06899 25.8329 2.3e-05 7e-06 8.42589 -3.06108 -9.0836 11.7666 -8e-06 -6e-06 -30.0103 -5.39282 6.65459 19.7459 -1.48035 6.0001 -169.762 14.9863 -88.9549 11.2841 1.8e-05 -2e-05 0.684609 -21.7957 70.8529 33 -1.3e-05 1.9e-05 -113.046 -14.9755 -3.52815 25.2 3.2e-05 1.1e-05 -20.3547 31.5936 -4.7291 19.7461 -1.48036 -6.00008 179.279 1.57847 86.3671 11.2841 0 -1e-06 -32.5761 -5.59589 -49.0152 33.0001 1.6e-05 -1e-06 -88.8834 -8.75676 21.8589 25.1998 0.000123 0.000432 -31.3035 -30.5892 19.9426 
2.43096 150.662 121.599 -67.4445 -66.1637 -154.54 0.103456 1.85784 10.5485 -9.81496 13.3698 174.64 43.5 -4.2e-05 1e-05 -53.8614 -0.667321 2.17672 42.3722 1.9e-05 0 86.9687 6.43093 -4.0511 17.3 0 3e-06 21.4546 -1e-06 0.003093 0.103456 1.85782 -10.5485 -35.3744 -5.28718 169.789 43.5 -2.7e-05 4e-06 -106.982 23.5936 -3.92716 42.3723 0 1e-05 91.1184 -4.78043 -4.02065 17.3 -6e-06 1.7e-05 21.4546 -1.9e-05 -0.003116 6.90197 -2.60373 -3e-06 12.9823 -0.479463 -1.20664 12.5881 1e-05 8e-06 15.9563 -1.04866 -2.25017 12.3432 -1.8e-05 -5e-06 15.6585 -0.946392 -2.16833 25.8329 2.3e-05 7e-06 7.91211 -1.98898 -9.68363 11.7666 -8e-06 -6e-06 -29.6326 -4.62511 6.60741 19.7459 -1.48035 6.0001 -170.91 15.8268 -91.0501 11.2841 1.8e-05 -2e-05 -1.57042 -23.2267 70.6843 33 -1.3e-05 1.9e-05 -114.878 -14.5916 -1.50908 25.2 3.2e-05 1.1e-05 -19.4089 29.8622 -4.2122 19.7461 -1.48036 -6.00008 -179.723 2.41337 84.7305 11.2841 0 -1e-06 -28.89 -6.34934 -48.5463 33.0001 1.6e-05 -1e-06 -87.6628 -7.90943 21.3231 25.1998 0.000123 0.000432 -30.4172 -29.7083 19.1544 
4.04223 153.497 119.469 -66.6682 -65.5322 -154.122 0.103456 1.85784 10.5485 -3.74025 11.6397 175.759 43.5 -4.2e-05 1e-05 -45.398 0.418684 -0.79465 42.3722 1.9e-05 0 82.3901 6.05712 -2.76504 17.3 0 3e-06 21.4546 -1e-06 0.003093 0.103456 1.85782 -10.5485 -41.162 -6.82074 172.969 43.5 -2.7e-05 4e-06 -105.811 25.729 -7.85284 42.3723 1.42109e-14 1e-05 94.3225 -0.401408 -2.79812 17.3 -6e-06 1.7e-05 21.4546 -1.9e-05 -0.003116 6.90197 -2.60373 -3e-06 13.2613 -0.653866 -1.07033 12.5881 1e-05 8e-06 16.5172 -1.3599 -1.93439 12.3432 -1.8e-05 -5e-06 16.2239 -1.22895 -1.83459 25.8329 2.3e-05 7e-06 7.41755 -1.87167 -9.84324 11.7666 -8e-06 -6e-06 -28.5101 -4.24602 5.53615 19.7459 -1.48035 6.0001 -171.573 16.732 -92.7597 11.2841 1.8e-05 -2e-05 -4.17926 -23.9707 70.5623 33 -1.3e-05 1.9e-05 -115.878 -13.7523 -0.118896 25.2 3.2e-05 1.1e-05 -19.3906 29.2045 -3.94888 19.7461 -1.48036 -6.00008 -178.245 3.29605 84.2884 11.2841 -2.84217e-14 -1e-06 -25.5716 -7.21714 -48.1326 33.0001 1.6e-05 -1e-06 -86.8044 -7.26716 20.7812 25.1998 0.000123 0.000432 -29.5276 -30.0832 19.1569 
